<?xml version="1.0" encoding="UTF-8" standalone="no"?>
<!-- Created with Inkscape (http://www.inkscape.org/) -->

<svg
   xmlns:dc="http://purl.org/dc/elements/1.1/"
   xmlns:cc="http://creativecommons.org/ns#"
   xmlns:rdf="http://www.w3.org/1999/02/22-rdf-syntax-ns#"
   xmlns:svg="http://www.w3.org/2000/svg"
   xmlns="http://www.w3.org/2000/svg"
   xmlns:sodipodi="http://sodipodi.sourceforge.net/DTD/sodipodi-0.dtd"
   xmlns:inkscape="http://www.inkscape.org/namespaces/inkscape"
   width="210mm"
   height="297mm"
   viewBox="0 0 744.09448819 1052.3622047"
   id="svg2"
   version="1.1"
   inkscape:version="0.91 r13725"
   sodipodi:docname="berrypath.svg">
  <sodipodi:namedview
     id="base"
     pagecolor="#ffffff"
     bordercolor="#666666"
     borderopacity="1.0"
     inkscape:pageopacity="0.0"
     inkscape:pageshadow="2"
     inkscape:zoom="6.3794562"
     inkscape:cx="194.9929"
     inkscape:cy="865.21031"
     inkscape:document-units="px"
     inkscape:current-layer="layer1"
     showgrid="true"
     showguides="false"
     inkscape:window-width="1920"
     inkscape:window-height="1146"
     inkscape:window-x="0"
     inkscape:window-y="0"
     inkscape:window-maximized="1">
    <inkscape:grid
       id="grid4136"
       type="xygrid" />
  </sodipodi:namedview>
  <defs
     id="defs4">
    <marker
       inkscape:isstock="true"
       style="overflow:visible;"
       id="Arrow1Mend"
       refX="0.0"
       refY="0.0"
       orient="auto"
       inkscape:stockid="Arrow1Mend">
      <path
         transform="scale(0.4) rotate(180) translate(10,0)"
         style="fill-rule:evenodd;stroke:#000000;stroke-width:1pt;stroke-opacity:1;fill:#000000;fill-opacity:1"
         d="M 0.0,0.0 L 5.0,-5.0 L -12.5,0.0 L 5.0,5.0 L 0.0,0.0 z "
         id="path4217" />
    </marker>
    <marker
       inkscape:isstock="true"
       style="overflow:visible;"
       id="marker4832"
       refX="0.0"
       refY="0.0"
       orient="auto"
       inkscape:stockid="Arrow2Mend">
      <path
         transform="scale(0.6) rotate(180) translate(0,0)"
         d="M 8.7185878,4.0337352 L -2.2072895,0.016013256 L 8.7185884,-4.0017078 C 6.9730900,-1.6296469 6.9831476,1.6157441 8.7185878,4.0337352 z "
         style="fill-rule:evenodd;stroke-width:0.625;stroke-linejoin:round;stroke:#000000;stroke-opacity:1;fill:#000000;fill-opacity:1"
         id="path4834" />
    </marker>
    <marker
       inkscape:isstock="true"
       style="overflow:visible;"
       id="marker4754"
       refX="0.0"
       refY="0.0"
       orient="auto"
       inkscape:stockid="Arrow2Mend">
      <path
         transform="scale(0.6) rotate(180) translate(0,0)"
         d="M 8.7185878,4.0337352 L -2.2072895,0.016013256 L 8.7185884,-4.0017078 C 6.9730900,-1.6296469 6.9831476,1.6157441 8.7185878,4.0337352 z "
         style="fill-rule:evenodd;stroke-width:0.625;stroke-linejoin:round;stroke:#000000;stroke-opacity:1;fill:#000000;fill-opacity:1"
         id="path4756" />
    </marker>
    <marker
       inkscape:isstock="true"
       style="overflow:visible;"
       id="Arrow2Mend"
       refX="0.0"
       refY="0.0"
       orient="auto"
       inkscape:stockid="Arrow2Mend">
      <path
         transform="scale(0.6) rotate(180) translate(0,0)"
         d="M 8.7185878,4.0337352 L -2.2072895,0.016013256 L 8.7185884,-4.0017078 C 6.9730900,-1.6296469 6.9831476,1.6157441 8.7185878,4.0337352 z "
         style="fill-rule:evenodd;stroke-width:0.625;stroke-linejoin:round;stroke:#000000;stroke-opacity:1;fill:#000000;fill-opacity:1"
         id="path4235" />
    </marker>
    <marker
       inkscape:isstock="true"
       style="overflow:visible;"
       id="Arrow2Lend"
       refX="0.0"
       refY="0.0"
       orient="auto"
       inkscape:stockid="Arrow2Lend">
      <path
         transform="scale(1.1) rotate(180) translate(1,0)"
         d="M 8.7185878,4.0337352 L -2.2072895,0.016013256 L 8.7185884,-4.0017078 C 6.9730900,-1.6296469 6.9831476,1.6157441 8.7185878,4.0337352 z "
         style="fill-rule:evenodd;stroke-width:0.625;stroke-linejoin:round;stroke:#000000;stroke-opacity:1;fill:#000000;fill-opacity:1"
         id="path4229" />
    </marker>
    <marker
       inkscape:isstock="true"
       style="overflow:visible"
       id="Arrow2Mend-5"
       refX="0"
       refY="0"
       orient="auto"
       inkscape:stockid="Arrow2Mend">
      <path
         transform="scale(-0.6,-0.6)"
         d="M 8.7185878,4.0337352 -2.2072895,0.01601326 8.7185884,-4.0017078 c -1.7454984,2.3720609 -1.7354408,5.6174519 -6e-7,8.035443 z"
         style="fill:#000000;fill-opacity:1;fill-rule:evenodd;stroke:#000000;stroke-width:0.625;stroke-linejoin:round;stroke-opacity:1"
         id="path4235-9"
         inkscape:connector-curvature="0" />
    </marker>
  </defs>
  <metadata
     id="metadata7">
    <rdf:RDF>
      <cc:Work
         rdf:about="">
        <dc:format>image/svg+xml</dc:format>
        <dc:type
           rdf:resource="http://purl.org/dc/dcmitype/StillImage" />
        <dc:title></dc:title>
      </cc:Work>
    </rdf:RDF>
  </metadata>
  <g
     id="layer1"
     inkscape:groupmode="layer"
     inkscape:label="Layer 1">
    <ellipse
       ry="1.3469827"
       rx="1.3469828"
       cy="184.55521"
       cx="282.61298"
       id="path4138-9-5-7-6"
       style="fill:#df0000;fill-opacity:1;stroke:#000000;stroke-width:0.30603451;stroke-miterlimit:4;stroke-dasharray:none;stroke-dashoffset:0;stroke-opacity:1" />
    <ellipse
       ry="1.3469827"
       rx="1.3469828"
       cy="230.55521"
       cx="110.61298"
       id="path4138-9"
       style="fill:#df0000;fill-opacity:1;stroke:#000000;stroke-width:0.30603451;stroke-miterlimit:4;stroke-dasharray:none;stroke-dashoffset:0;stroke-opacity:1" />
    <ellipse
       ry="1.3469827"
       rx="1.3469828"
       cy="230.55521"
       cx="218.61298"
       id="path4138-9-5"
       style="fill:#df0000;fill-opacity:1;stroke:#000000;stroke-width:0.30603451;stroke-miterlimit:4;stroke-dasharray:none;stroke-dashoffset:0;stroke-opacity:1" />
    <circle
       r="1.3469827"
       cy="150.55521"
       cx="218.61298"
       id="path4138-9-5-7"
       style="fill:#df0000;fill-opacity:1;stroke:#000000;stroke-width:0.30603451;stroke-miterlimit:4;stroke-dasharray:none;stroke-dashoffset:0;stroke-opacity:1" />
    <path
       inkscape:connector-curvature="0"
       id="path4202"
       d="m 115,230.3622 c 100,0 100,0 100,0"
       style="fill:none;fill-rule:evenodd;stroke:#000000;stroke-width:0.5;stroke-linecap:butt;stroke-linejoin:miter;stroke-miterlimit:4;stroke-dasharray:none;stroke-opacity:1;marker-end:url(#Arrow2Mend)" />
    <path
       inkscape:connector-curvature="0"
       id="path4746"
       d="m 218,227.3622 c 0,-72.34835 0,-72.34835 0,-72.34835"
       style="fill:none;fill-rule:evenodd;stroke:#000000;stroke-width:0.5;stroke-linecap:butt;stroke-linejoin:miter;stroke-miterlimit:4;stroke-dasharray:none;stroke-opacity:1;marker-end:url(#marker4754)" />
    <path
       inkscape:connector-curvature="0"
       id="path4830"
       d="m 220,152.3622 c 60,30 60,30 60,30"
       style="fill:none;fill-rule:evenodd;stroke:#000000;stroke-width:0.5;stroke-linecap:butt;stroke-linejoin:miter;stroke-opacity:1;stroke-miterlimit:4;stroke-dasharray:none;marker-end:url(#marker4832)" />
    <path
       inkscape:connector-curvature="0"
       id="path4878"
       d="m 280,187.3622 c -165,40 -165,40 -165,40"
       style="fill:none;fill-rule:evenodd;stroke:#000000;stroke-width:0.5;stroke-linecap:butt;stroke-linejoin:miter;stroke-opacity:1;stroke-miterlimit:4;stroke-dasharray:none;marker-end:url(#Arrow1Mend)" />
    <g
       transform="matrix(0.17433751,0,0,0.17433751,153.35686,83.275182)"
       id="g5029">
      <g
         style="font-style:normal;font-variant:normal;font-weight:normal;font-stretch:normal;letter-spacing:normal;word-spacing:normal;text-anchor:start;fill:none;fill-opacity:1;fill-rule:evenodd;stroke:#000000;stroke-linecap:butt;stroke-linejoin:miter;stroke-miterlimit:10.43299961;stroke-dasharray:none;stroke-dashoffset:0;stroke-opacity:1"
         id="content"
         transform="matrix(1.0629921,0,0,-1.0629921,-186.02362,789.27165)"
         xml:space="preserve"
         stroke-miterlimit="10.433"
         font-style="normal"
         font-variant="normal"
         font-weight="normal"
         font-stretch="normal"
         font-size-adjust="none"
         letter-spacing="normal"
         word-spacing="normal"><path
           style="fill:#000000;stroke-width:0"
           inkscape:connector-curvature="0"
           d="m 463.44,441.78 0,0.16 0,0.17 -0.01,0.16 0,0.08 0,0.08 -0.01,0.08 -0.01,0.08 -0.01,0.07 -0.01,0.07 -0.02,0.07 -0.01,0.07 -0.02,0.07 -0.02,0.06 -0.03,0.06 -0.03,0.06 -0.03,0.06 -0.03,0.05 -0.04,0.05 -0.04,0.05 -0.05,0.04 -0.05,0.04 -0.03,0.01 -0.03,0.02 -0.03,0.02 -0.03,0.01 -0.03,0.01 -0.03,0.02 -0.03,0.01 -0.04,0.01 -0.04,0.01 -0.03,0.01 -0.04,0 -0.04,0.01 -0.04,0 -0.05,0.01 -0.04,0 -0.05,0 c -1,0 -1,-0.89 -1,-1.78 l 0,-46.24 c 0,-0.9 0,-1.79 1,-1.79 1,0 1,0.89 1,1.79 z"
           id="path5032" /><path
           style="fill:#000000;stroke-width:0"
           inkscape:connector-curvature="0"
           d="m 490.6,436.29 0,0.16 0,0.15 0,0.14 0.01,0.14 0.01,0.13 0.01,0.13 0.02,0.12 0.02,0.12 0.03,0.11 0.04,0.11 0.05,0.1 0.06,0.09 0.06,0.09 0.08,0.09 0.09,0.08 0.11,0.07 0.12,0.07 0.06,0.03 0.07,0.04 0.07,0.03 0.08,0.03 0.08,0.03 0.08,0.02 0.09,0.03 0.09,0.02 0.1,0.03 0.1,0.02 0.11,0.02 0.11,0.02 0.12,0.02 0.12,0.02 0.13,0.01 0.13,0.02 0.14,0.01 0.14,0.02 0.15,0.01 0.15,0.01 0.16,0.01 0.17,0.01 0.17,0.01 0.18,0.01 0.18,0 0.2,0.01 0.19,0 0.21,0 0.21,0 0.22,0 1.65,0 0,1.55 c -1.79,-0.16 -6.37,-0.16 -8.42,-0.16 -2.05,0 -6.67,0 -8.47,0.16 l 0,-1.55 1.64,0 c 4.74,0 4.74,-0.65 4.74,-2.39 l 0,-22.12 c -6.53,1.75 -6.78,9.42 -6.78,12.65 -0.05,6.04 -2.24,6.97 -4.44,6.97 l -1.85,0 c -0.73,0 -1.23,0 -1.23,-0.54 0,-0.25 0.14,-0.49 0.44,-0.55 1.65,-0.19 2.89,-0.89 2.95,-6.77 0,-1.15 0.14,-5.09 2.53,-8.42 1.96,-2.69 4.99,-4.14 8.38,-4.59 l 0,-2.78 c 0,-1.71 0,-2.39 -4.74,-2.39 l -1.64,0 0,-1.55 c 1.8,0.16 6.38,0.16 8.42,0.16 2.04,0 6.68,0 8.47,-0.16 l 0,1.55 -1.65,0 c -4.72,0 -4.72,0.64 -4.72,2.39 l 0,2.78 c 3.58,0.45 6.62,1.95 8.56,4.54 2.59,3.54 2.64,7.47 2.64,9.66 0,0.8 0.05,5.24 2.74,5.58 0.29,0.06 0.65,0.11 0.65,0.55 0,0.54 -0.4,0.54 -1.2,0.54 l -1.89,0 c -1.94,0 -4.39,-0.34 -4.44,-7.56 -0.05,-5.48 -1.69,-10.77 -7.06,-12.06 z"
           id="path5034" /><path
           style="fill:#000000;stroke-width:0"
           inkscape:connector-curvature="0"
           d="m 524.56,394.25 0,0.02 0,0.03 0,0.01 -0.01,0.02 0,0.01 0,0.02 -0.01,0.01 -0.01,0.02 -0.01,0.02 -0.01,0.02 -0.01,0.02 -0.01,0.03 -0.02,0.02 -0.02,0.03 -0.02,0.03 -0.02,0.03 -0.03,0.03 -0.03,0.04 -0.01,0.02 -0.02,0.02 -0.02,0.02 -0.02,0.02 -0.01,0.02 -0.02,0.03 -0.03,0.02 -0.02,0.02 -0.02,0.03 -0.02,0.02 -0.03,0.03 -0.02,0.03 -0.03,0.03 -0.03,0.03 -0.03,0.03 -0.03,0.03 -0.03,0.03 -0.03,0.03 -0.03,0.04 -0.04,0.03 -0.03,0.04 -0.04,0.03 -0.04,0.04 -0.03,0.04 c -6.22,6.28 -7.82,15.69 -7.82,23.31 0,8.67 1.89,17.35 8.02,23.56 0.64,0.61 0.64,0.71 0.64,0.86 0,0.35 -0.19,0.49 -0.49,0.49 -0.5,0 -4.98,-3.38 -7.92,-9.7 -2.55,-5.49 -3.14,-11.02 -3.14,-15.21 0,-3.89 0.55,-9.9 3.28,-15.54 2.99,-6.13 7.28,-9.36 7.78,-9.36 0.3,0 0.49,0.14 0.49,0.5 z"
           id="path5036" /><path
           style="fill:#000000;stroke-width:0"
           inkscape:connector-curvature="0"
           d="m 535.06,421.45 -0.49,-0.34 -0.48,-0.35 -0.44,-0.35 -0.43,-0.35 -0.4,-0.36 -0.38,-0.36 -0.36,-0.36 -0.33,-0.37 -0.32,-0.36 -0.29,-0.37 -0.28,-0.36 -0.25,-0.36 -0.24,-0.36 -0.22,-0.36 -0.21,-0.35 -0.18,-0.35 -0.17,-0.34 -0.16,-0.34 -0.14,-0.33 -0.13,-0.32 -0.11,-0.32 -0.1,-0.3 -0.09,-0.3 -0.07,-0.28 -0.07,-0.28 -0.05,-0.26 -0.05,-0.25 -0.03,-0.24 -0.03,-0.22 -0.02,-0.21 -0.01,-0.19 0,-0.17 c 0,-2.39 1.35,-3.8 1.45,-3.94 1.6,-1.66 2.05,-1.84 5.79,-3.25 l 6.01,-2.33 c 0.75,-0.36 1.75,-0.7 1.75,-2.16 0,-1.14 -0.89,-2.64 -2.44,-2.64 -2.18,0 -3.84,1.21 -4.39,1.61 -0.29,0.19 -0.34,0.24 -0.54,0.24 -0.39,0 -0.5,-0.35 -0.5,-0.55 0,-0.59 2.64,-2.39 5.43,-2.39 3.1,0 5.18,2.89 5.18,5.34 0,2.39 -1.85,3.29 -2.39,3.54 -0.69,0.25 -2.4,0.89 -3.04,1.14 -1,0.4 -2,0.79 -3.04,1.15 l -2.99,1.19 c -2.23,0.91 -3.73,2.34 -3.73,4.44 0,2.04 1.94,6.37 6.12,8.47 1.85,-0.66 3.35,-0.66 4.39,-0.66 1.49,0 4.63,0 4.63,1.55 0,1.25 -2.14,1.34 -4.08,1.34 l -0.05,-1.09 c 1.74,0 1.94,-0.05 2.83,-0.3 -0.39,-0.2 -0.89,-0.39 -3.19,-0.39 -1.14,0 -1.59,0 -2.48,0.39 l 0,0 c 1.14,0.3 2.23,0.3 2.84,0.3 l 0.05,1.09 c -0.91,0 -2.34,0 -4.19,-0.59 -1.29,1.29 -1.5,2.93 -1.5,3.89 0,2.78 1.8,6.62 5.53,8.47 0.91,-1.1 2.05,-1.1 3.19,-1.1 l 0.06,1.1 c -0.95,0 -1.54,0 -2.09,0.45 l 0,0 c 0.8,0.25 1.84,0.25 2.39,0.25 1.69,0 1.89,-0.06 2.78,-0.31 -0.39,-0.14 -0.89,-0.39 -3.08,-0.39 l -0.06,-1.1 c 1.25,0 4.44,0 4.44,1.55 0,1.3 -2.19,1.34 -4.14,1.34 -0.64,0 -1.85,0 -3.13,-0.25 -0.15,0.44 -0.25,0.8 -0.25,1.64 0,0.71 0.25,1.75 0.25,1.85 0,0.39 -0.25,0.64 -0.61,0.64 -0.89,0 -0.89,-2.28 -0.89,-2.44 0,-1 0.3,-1.73 0.35,-1.94 -5.33,-1.5 -8.72,-5.48 -8.72,-9.31 0,-1.84 0.91,-3.94 3.23,-5.28 z"
           id="path5038" /><path
           style="fill:#000000;stroke-width:0"
           inkscape:connector-curvature="0"
           d="m 560.91,420.92 0,0.04 0,0.04 0,0.05 0,0.04 0,0.03 0,0.04 0,0.04 0,0.03 -0.01,0.04 0,0.03 0,0.03 0,0.03 0,0.03 -0.01,0.03 0,0.03 -0.01,0.02 0,0.03 0,0.02 -0.01,0.03 0,0.02 -0.02,0.04 -0.01,0.04 -0.02,0.03 -0.02,0.03 -0.02,0.03 -0.02,0.03 -0.03,0.02 -0.03,0.02 -0.04,0.02 -0.03,0.01 -0.04,0.01 -0.05,0.02 -0.02,0 -0.03,0 -0.02,0.01 -0.03,0 -0.03,0.01 -0.02,0 -0.03,0 -0.03,0 -0.04,0 -0.03,0.01 -0.03,0 -0.04,0 -0.04,0 -0.03,0 -0.04,0 -0.04,0 -0.04,0 -0.05,0 -0.04,0 -0.05,0 c -2.23,-2.2 -5.39,-2.23 -6.83,-2.23 l 0,-1.25 c 0.85,0 3.15,0 5.05,0.97 l 0,-17.77 c 0,-1.16 0,-1.61 -3.48,-1.61 l -1.32,0 0,-1.25 c 0.63,0.03 4.91,0.14 6.21,0.14 1.08,0 5.47,-0.11 6.23,-0.14 l 0,1.25 -1.32,0 c -3.49,0 -3.49,0.45 -3.49,1.61 z"
           id="path5040" /><path
           style="fill:#000000;stroke-width:0"
           inkscape:connector-curvature="0"
           d="m 586.07,418.65 0,0.37 -0.01,0.39 -0.01,0.39 -0.01,0.41 -0.04,0.84 -0.06,0.88 -0.08,0.92 -0.11,0.95 -0.13,0.97 -0.17,1.01 -0.19,1.02 -0.23,1.03 -0.27,1.05 -0.3,1.06 -0.35,1.07 -0.4,1.07 -0.21,0.53 -0.22,0.53 -0.24,0.53 -0.25,0.53 c -2.99,6.12 -7.27,9.36 -7.77,9.36 -0.29,0 -0.5,-0.19 -0.5,-0.49 0,-0.15 0,-0.25 0.94,-1.15 4.89,-4.92 7.74,-12.85 7.74,-23.27 0,-8.51 -1.85,-17.28 -8.04,-23.56 -0.64,-0.59 -0.64,-0.7 -0.64,-0.84 0,-0.3 0.21,-0.5 0.5,-0.5 0.5,0 4.97,3.39 7.93,9.71 2.53,5.47 3.12,11 3.12,15.19 z"
           id="path5042" /><path
           style="fill:#000000;stroke-width:0"
           inkscape:connector-curvature="0"
           d="m 604.59,417.81 0.01,0.03 0.01,0.02 0.01,0.03 0.01,0.02 0.01,0.03 0.01,0.02 0.01,0.03 0.01,0.02 0.01,0.02 0.01,0.02 0.01,0.02 0.01,0.03 0.01,0.03 0.01,0.04 0.02,0.04 0.01,0.03 0.01,0.03 0.01,0.03 0.01,0.03 0.01,0.02 0,0.03 0.01,0.02 0,0.02 0.01,0.02 0,0.02 0.01,0.02 0,0.02 0,0.01 0,0.02 0.01,0.01 0,0.02 0,0.01 0,0.03 0,0.03 0,0.02 c 0,0.16 0,0.25 -0.25,0.85 l -8.72,22.92 c -0.3,0.84 -0.59,1.14 -1.14,1.14 -0.55,0 -1,-0.44 -1,-0.99 0,-0.15 0,-0.25 0.25,-0.79 l 8.83,-23.13 -8.83,-23.01 c -0.25,-0.55 -0.25,-0.64 -0.25,-0.89 0,-0.55 0.45,-1 1,-1 0.66,0 0.84,0.5 1.05,1 z"
           id="path5044" /></g>    </g>
    <g
       id="g5339"
       transform="matrix(0.17433751,0,0,0.17433751,229.21639,114.97523)">
      <g
         word-spacing="normal"
         letter-spacing="normal"
         font-size-adjust="none"
         font-stretch="normal"
         font-weight="normal"
         font-variant="normal"
         font-style="normal"
         stroke-miterlimit="10.433"
         xml:space="preserve"
         transform="matrix(1.0629921,0,0,-1.0629921,-186.02362,789.27165)"
         id="g5341"
         style="font-style:normal;font-variant:normal;font-weight:normal;font-stretch:normal;letter-spacing:normal;word-spacing:normal;text-anchor:start;fill:none;fill-opacity:1;fill-rule:evenodd;stroke:#000000;stroke-linecap:butt;stroke-linejoin:miter;stroke-miterlimit:10.43299961;stroke-dasharray:none;stroke-dashoffset:0;stroke-opacity:1"><path
           id="path5343"
           d="m 463.44,441.78 0,0.16 0,0.17 -0.01,0.16 0,0.08 0,0.08 -0.01,0.08 -0.01,0.08 -0.01,0.07 -0.01,0.07 -0.02,0.07 -0.01,0.07 -0.02,0.07 -0.02,0.06 -0.03,0.06 -0.03,0.06 -0.03,0.06 -0.03,0.05 -0.04,0.05 -0.04,0.05 -0.05,0.04 -0.05,0.04 -0.03,0.01 -0.03,0.02 -0.03,0.02 -0.03,0.01 -0.03,0.01 -0.03,0.02 -0.03,0.01 -0.04,0.01 -0.04,0.01 -0.03,0.01 -0.04,0 -0.04,0.01 -0.04,0 -0.05,0.01 -0.04,0 -0.05,0 c -1,0 -1,-0.89 -1,-1.78 l 0,-46.24 c 0,-0.9 0,-1.79 1,-1.79 1,0 1,0.89 1,1.79 z"
           inkscape:connector-curvature="0"
           style="fill:#000000;stroke-width:0" /><path
           id="path5345"
           d="m 490.6,436.29 0,0.16 0,0.15 0,0.14 0.01,0.14 0.01,0.13 0.01,0.13 0.02,0.12 0.02,0.12 0.03,0.11 0.04,0.11 0.05,0.1 0.06,0.09 0.06,0.09 0.08,0.09 0.09,0.08 0.11,0.07 0.12,0.07 0.06,0.03 0.07,0.04 0.07,0.03 0.08,0.03 0.08,0.03 0.08,0.02 0.09,0.03 0.09,0.02 0.1,0.03 0.1,0.02 0.11,0.02 0.11,0.02 0.12,0.02 0.12,0.02 0.13,0.01 0.13,0.02 0.14,0.01 0.14,0.02 0.15,0.01 0.15,0.01 0.16,0.01 0.17,0.01 0.17,0.01 0.18,0.01 0.18,0 0.2,0.01 0.19,0 0.21,0 0.21,0 0.22,0 1.65,0 0,1.55 c -1.79,-0.16 -6.37,-0.16 -8.42,-0.16 -2.05,0 -6.67,0 -8.47,0.16 l 0,-1.55 1.64,0 c 4.74,0 4.74,-0.65 4.74,-2.39 l 0,-22.12 c -6.53,1.75 -6.78,9.42 -6.78,12.65 -0.05,6.04 -2.24,6.97 -4.44,6.97 l -1.85,0 c -0.73,0 -1.23,0 -1.23,-0.54 0,-0.25 0.14,-0.49 0.44,-0.55 1.65,-0.19 2.89,-0.89 2.95,-6.77 0,-1.15 0.14,-5.09 2.53,-8.42 1.96,-2.69 4.99,-4.14 8.38,-4.59 l 0,-2.78 c 0,-1.71 0,-2.39 -4.74,-2.39 l -1.64,0 0,-1.55 c 1.8,0.16 6.38,0.16 8.42,0.16 2.04,0 6.68,0 8.47,-0.16 l 0,1.55 -1.65,0 c -4.72,0 -4.72,0.64 -4.72,2.39 l 0,2.78 c 3.58,0.45 6.62,1.95 8.56,4.54 2.59,3.54 2.64,7.47 2.64,9.66 0,0.8 0.05,5.24 2.74,5.58 0.29,0.06 0.65,0.11 0.65,0.55 0,0.54 -0.4,0.54 -1.2,0.54 l -1.89,0 c -1.94,0 -4.39,-0.34 -4.44,-7.56 -0.05,-5.48 -1.69,-10.77 -7.06,-12.06 z"
           inkscape:connector-curvature="0"
           style="fill:#000000;stroke-width:0" /><path
           id="path5347"
           d="m 524.56,394.25 0,0.02 0,0.03 0,0.01 -0.01,0.02 0,0.01 0,0.02 -0.01,0.01 -0.01,0.02 -0.01,0.02 -0.01,0.02 -0.01,0.02 -0.01,0.03 -0.02,0.02 -0.02,0.03 -0.02,0.03 -0.02,0.03 -0.03,0.03 -0.03,0.04 -0.01,0.02 -0.02,0.02 -0.02,0.02 -0.02,0.02 -0.01,0.02 -0.02,0.03 -0.03,0.02 -0.02,0.02 -0.02,0.03 -0.02,0.02 -0.03,0.03 -0.02,0.03 -0.03,0.03 -0.03,0.03 -0.03,0.03 -0.03,0.03 -0.03,0.03 -0.03,0.03 -0.03,0.04 -0.04,0.03 -0.03,0.04 -0.04,0.03 -0.04,0.04 -0.03,0.04 c -6.22,6.28 -7.82,15.69 -7.82,23.31 0,8.67 1.89,17.35 8.02,23.56 0.64,0.61 0.64,0.71 0.64,0.86 0,0.35 -0.19,0.49 -0.49,0.49 -0.5,0 -4.98,-3.38 -7.92,-9.7 -2.55,-5.49 -3.14,-11.02 -3.14,-15.21 0,-3.89 0.55,-9.9 3.28,-15.54 2.99,-6.13 7.28,-9.36 7.78,-9.36 0.3,0 0.49,0.14 0.49,0.5 z"
           inkscape:connector-curvature="0"
           style="fill:#000000;stroke-width:0" /><path
           id="path5349"
           d="m 535.06,421.45 -0.49,-0.34 -0.48,-0.35 -0.44,-0.35 -0.43,-0.35 -0.4,-0.36 -0.38,-0.36 -0.36,-0.36 -0.33,-0.37 -0.32,-0.36 -0.29,-0.37 -0.28,-0.36 -0.25,-0.36 -0.24,-0.36 -0.22,-0.36 -0.21,-0.35 -0.18,-0.35 -0.17,-0.34 -0.16,-0.34 -0.14,-0.33 -0.13,-0.32 -0.11,-0.32 -0.1,-0.3 -0.09,-0.3 -0.07,-0.28 -0.07,-0.28 -0.05,-0.26 -0.05,-0.25 -0.03,-0.24 -0.03,-0.22 -0.02,-0.21 -0.01,-0.19 0,-0.17 c 0,-2.39 1.35,-3.8 1.45,-3.94 1.6,-1.66 2.05,-1.84 5.79,-3.25 l 6.01,-2.33 c 0.75,-0.36 1.75,-0.7 1.75,-2.16 0,-1.14 -0.89,-2.64 -2.44,-2.64 -2.18,0 -3.84,1.21 -4.39,1.61 -0.29,0.19 -0.34,0.24 -0.54,0.24 -0.39,0 -0.5,-0.35 -0.5,-0.55 0,-0.59 2.64,-2.39 5.43,-2.39 3.1,0 5.18,2.89 5.18,5.34 0,2.39 -1.85,3.29 -2.39,3.54 -0.69,0.25 -2.4,0.89 -3.04,1.14 -1,0.4 -2,0.79 -3.04,1.15 l -2.99,1.19 c -2.23,0.91 -3.73,2.34 -3.73,4.44 0,2.04 1.94,6.37 6.12,8.47 1.85,-0.66 3.35,-0.66 4.39,-0.66 1.49,0 4.63,0 4.63,1.55 0,1.25 -2.14,1.34 -4.08,1.34 l -0.05,-1.09 c 1.74,0 1.94,-0.05 2.83,-0.3 -0.39,-0.2 -0.89,-0.39 -3.19,-0.39 -1.14,0 -1.59,0 -2.48,0.39 l 0,0 c 1.14,0.3 2.23,0.3 2.84,0.3 l 0.05,1.09 c -0.91,0 -2.34,0 -4.19,-0.59 -1.29,1.29 -1.5,2.93 -1.5,3.89 0,2.78 1.8,6.62 5.53,8.47 0.91,-1.1 2.05,-1.1 3.19,-1.1 l 0.06,1.1 c -0.95,0 -1.54,0 -2.09,0.45 l 0,0 c 0.8,0.25 1.84,0.25 2.39,0.25 1.69,0 1.89,-0.06 2.78,-0.31 -0.39,-0.14 -0.89,-0.39 -3.08,-0.39 l -0.06,-1.1 c 1.25,0 4.44,0 4.44,1.55 0,1.3 -2.19,1.34 -4.14,1.34 -0.64,0 -1.85,0 -3.13,-0.25 -0.15,0.44 -0.25,0.8 -0.25,1.64 0,0.71 0.25,1.75 0.25,1.85 0,0.39 -0.25,0.64 -0.61,0.64 -0.89,0 -0.89,-2.28 -0.89,-2.44 0,-1 0.3,-1.73 0.35,-1.94 -5.33,-1.5 -8.72,-5.48 -8.72,-9.31 0,-1.84 0.91,-3.94 3.23,-5.28 z"
           inkscape:connector-curvature="0"
           style="fill:#000000;stroke-width:0" /><path
           id="path5351"
           d="m 566.83,405.11 -1.18,0 c -0.1,-0.77 -0.46,-2.83 -0.91,-3.18 -0.27,-0.2 -2.96,-0.2 -3.44,-0.2 l -6.42,0 c 3.65,3.23 4.87,4.2 6.97,5.84 2.58,2.07 4.98,4.22 4.98,7.54 0,4.21 -3.68,6.79 -8.15,6.79 -4.32,0 -7.25,-3.03 -7.25,-6.23 0,-1.78 1.5,-1.96 1.85,-1.96 0.83,0 1.85,0.6 1.85,1.85 0,0.62 -0.25,1.84 -2.06,1.84 1.08,2.47 3.45,3.24 5.09,3.24 3.49,0 5.3,-2.71 5.3,-5.53 0,-3.04 -2.16,-5.44 -3.28,-6.69 l -8.4,-8.3 c -0.35,-0.31 -0.35,-0.39 -0.35,-1.36 l 14.35,0 z"
           inkscape:connector-curvature="0"
           style="fill:#000000;stroke-width:0" /><path
           id="path5353"
           d="m 586.07,418.65 0,0.37 -0.01,0.39 -0.01,0.39 -0.01,0.41 -0.04,0.84 -0.06,0.88 -0.08,0.92 -0.11,0.95 -0.13,0.97 -0.17,1.01 -0.19,1.02 -0.23,1.03 -0.27,1.05 -0.3,1.06 -0.35,1.07 -0.4,1.07 -0.21,0.53 -0.22,0.53 -0.24,0.53 -0.25,0.53 c -2.99,6.12 -7.27,9.36 -7.77,9.36 -0.29,0 -0.5,-0.19 -0.5,-0.49 0,-0.15 0,-0.25 0.94,-1.15 4.89,-4.92 7.74,-12.85 7.74,-23.27 0,-8.51 -1.85,-17.28 -8.04,-23.56 -0.64,-0.59 -0.64,-0.7 -0.64,-0.84 0,-0.3 0.21,-0.5 0.5,-0.5 0.5,0 4.97,3.39 7.93,9.71 2.53,5.47 3.12,11 3.12,15.19 z"
           inkscape:connector-curvature="0"
           style="fill:#000000;stroke-width:0" /><path
           id="path5355"
           d="m 604.59,417.81 0.01,0.03 0.01,0.02 0.01,0.03 0.01,0.02 0.01,0.03 0.01,0.02 0.01,0.03 0.01,0.02 0.01,0.02 0.01,0.02 0.01,0.02 0.01,0.03 0.01,0.03 0.01,0.04 0.02,0.04 0.01,0.03 0.01,0.03 0.01,0.03 0.01,0.03 0.01,0.02 0,0.03 0.01,0.02 0,0.02 0.01,0.02 0,0.02 0.01,0.02 0,0.02 0,0.01 0,0.02 0.01,0.01 0,0.02 0,0.01 0,0.03 0,0.03 0,0.02 c 0,0.16 0,0.25 -0.25,0.85 l -8.72,22.92 c -0.3,0.84 -0.59,1.14 -1.14,1.14 -0.55,0 -1,-0.44 -1,-0.99 0,-0.15 0,-0.25 0.25,-0.79 l 8.83,-23.13 -8.83,-23.01 c -0.25,-0.55 -0.25,-0.64 -0.25,-0.89 0,-0.55 0.45,-1 1,-1 0.66,0 0.84,0.5 1.05,1 z"
           inkscape:connector-curvature="0"
           style="fill:#000000;stroke-width:0" /></g>    </g>
    <g
       transform="matrix(0.17433751,0,0,0.17433751,36.21779,157.83181)"
       id="g5443">
      <g
         style="font-style:normal;font-variant:normal;font-weight:normal;font-stretch:normal;letter-spacing:normal;word-spacing:normal;text-anchor:start;fill:none;fill-opacity:1;fill-rule:evenodd;stroke:#000000;stroke-linecap:butt;stroke-linejoin:miter;stroke-miterlimit:10.43299961;stroke-dasharray:none;stroke-dashoffset:0;stroke-opacity:1"
         id="g5445"
         transform="matrix(1.0629921,0,0,-1.0629921,-186.02362,789.27165)"
         xml:space="preserve"
         stroke-miterlimit="10.433"
         font-style="normal"
         font-variant="normal"
         font-weight="normal"
         font-stretch="normal"
         font-size-adjust="none"
         letter-spacing="normal"
         word-spacing="normal"><path
           style="fill:#000000;stroke-width:0"
           inkscape:connector-curvature="0"
           d="m 463.44,441.78 0,0.16 0,0.17 -0.01,0.16 0,0.08 0,0.08 -0.01,0.08 -0.01,0.08 -0.01,0.07 -0.01,0.07 -0.02,0.07 -0.01,0.07 -0.02,0.07 -0.02,0.06 -0.03,0.06 -0.03,0.06 -0.03,0.06 -0.03,0.05 -0.04,0.05 -0.04,0.05 -0.05,0.04 -0.05,0.04 -0.03,0.01 -0.03,0.02 -0.03,0.02 -0.03,0.01 -0.03,0.01 -0.03,0.02 -0.03,0.01 -0.04,0.01 -0.04,0.01 -0.03,0.01 -0.04,0 -0.04,0.01 -0.04,0 -0.05,0.01 -0.04,0 -0.05,0 c -1,0 -1,-0.89 -1,-1.78 l 0,-46.24 c 0,-0.9 0,-1.79 1,-1.79 1,0 1,0.89 1,1.79 z"
           id="path5447" /><path
           style="fill:#000000;stroke-width:0"
           inkscape:connector-curvature="0"
           d="m 490.6,436.29 0,0.16 0,0.15 0,0.14 0.01,0.14 0.01,0.13 0.01,0.13 0.02,0.12 0.02,0.12 0.03,0.11 0.04,0.11 0.05,0.1 0.06,0.09 0.06,0.09 0.08,0.09 0.09,0.08 0.11,0.07 0.12,0.07 0.06,0.03 0.07,0.04 0.07,0.03 0.08,0.03 0.08,0.03 0.08,0.02 0.09,0.03 0.09,0.02 0.1,0.03 0.1,0.02 0.11,0.02 0.11,0.02 0.12,0.02 0.12,0.02 0.13,0.01 0.13,0.02 0.14,0.01 0.14,0.02 0.15,0.01 0.15,0.01 0.16,0.01 0.17,0.01 0.17,0.01 0.18,0.01 0.18,0 0.2,0.01 0.19,0 0.21,0 0.21,0 0.22,0 1.65,0 0,1.55 c -1.79,-0.16 -6.37,-0.16 -8.42,-0.16 -2.05,0 -6.67,0 -8.47,0.16 l 0,-1.55 1.64,0 c 4.74,0 4.74,-0.65 4.74,-2.39 l 0,-22.12 c -6.53,1.75 -6.78,9.42 -6.78,12.65 -0.05,6.04 -2.24,6.97 -4.44,6.97 l -1.85,0 c -0.73,0 -1.23,0 -1.23,-0.54 0,-0.25 0.14,-0.49 0.44,-0.55 1.65,-0.19 2.89,-0.89 2.95,-6.77 0,-1.15 0.14,-5.09 2.53,-8.42 1.96,-2.69 4.99,-4.14 8.38,-4.59 l 0,-2.78 c 0,-1.71 0,-2.39 -4.74,-2.39 l -1.64,0 0,-1.55 c 1.8,0.16 6.38,0.16 8.42,0.16 2.04,0 6.68,0 8.47,-0.16 l 0,1.55 -1.65,0 c -4.72,0 -4.72,0.64 -4.72,2.39 l 0,2.78 c 3.58,0.45 6.62,1.95 8.56,4.54 2.59,3.54 2.64,7.47 2.64,9.66 0,0.8 0.05,5.24 2.74,5.58 0.29,0.06 0.65,0.11 0.65,0.55 0,0.54 -0.4,0.54 -1.2,0.54 l -1.89,0 c -1.94,0 -4.39,-0.34 -4.44,-7.56 -0.05,-5.48 -1.69,-10.77 -7.06,-12.06 z"
           id="path5449" /><path
           style="fill:#000000;stroke-width:0"
           inkscape:connector-curvature="0"
           d="m 524.56,394.25 0,0.02 0,0.03 0,0.01 -0.01,0.02 0,0.01 0,0.02 -0.01,0.01 -0.01,0.02 -0.01,0.02 -0.01,0.02 -0.01,0.02 -0.01,0.03 -0.02,0.02 -0.02,0.03 -0.02,0.03 -0.02,0.03 -0.03,0.03 -0.03,0.04 -0.01,0.02 -0.02,0.02 -0.02,0.02 -0.02,0.02 -0.01,0.02 -0.02,0.03 -0.03,0.02 -0.02,0.02 -0.02,0.03 -0.02,0.02 -0.03,0.03 -0.02,0.03 -0.03,0.03 -0.03,0.03 -0.03,0.03 -0.03,0.03 -0.03,0.03 -0.03,0.03 -0.03,0.04 -0.04,0.03 -0.03,0.04 -0.04,0.03 -0.04,0.04 -0.03,0.04 c -6.22,6.28 -7.82,15.69 -7.82,23.31 0,8.67 1.89,17.35 8.02,23.56 0.64,0.61 0.64,0.71 0.64,0.86 0,0.35 -0.19,0.49 -0.49,0.49 -0.5,0 -4.98,-3.38 -7.92,-9.7 -2.55,-5.49 -3.14,-11.02 -3.14,-15.21 0,-3.89 0.55,-9.9 3.28,-15.54 2.99,-6.13 7.28,-9.36 7.78,-9.36 0.3,0 0.49,0.14 0.49,0.5 z"
           id="path5451" /><path
           style="fill:#000000;stroke-width:0"
           inkscape:connector-curvature="0"
           d="m 535.06,421.45 -0.49,-0.34 -0.48,-0.35 -0.44,-0.35 -0.43,-0.35 -0.4,-0.36 -0.38,-0.36 -0.36,-0.36 -0.33,-0.37 -0.32,-0.36 -0.29,-0.37 -0.28,-0.36 -0.25,-0.36 -0.24,-0.36 -0.22,-0.36 -0.21,-0.35 -0.18,-0.35 -0.17,-0.34 -0.16,-0.34 -0.14,-0.33 -0.13,-0.32 -0.11,-0.32 -0.1,-0.3 -0.09,-0.3 -0.07,-0.28 -0.07,-0.28 -0.05,-0.26 -0.05,-0.25 -0.03,-0.24 -0.03,-0.22 -0.02,-0.21 -0.01,-0.19 0,-0.17 c 0,-2.39 1.35,-3.8 1.45,-3.94 1.6,-1.66 2.05,-1.84 5.79,-3.25 l 6.01,-2.33 c 0.75,-0.36 1.75,-0.7 1.75,-2.16 0,-1.14 -0.89,-2.64 -2.44,-2.64 -2.18,0 -3.84,1.21 -4.39,1.61 -0.29,0.19 -0.34,0.24 -0.54,0.24 -0.39,0 -0.5,-0.35 -0.5,-0.55 0,-0.59 2.64,-2.39 5.43,-2.39 3.1,0 5.18,2.89 5.18,5.34 0,2.39 -1.85,3.29 -2.39,3.54 -0.69,0.25 -2.4,0.89 -3.04,1.14 -1,0.4 -2,0.79 -3.04,1.15 l -2.99,1.19 c -2.23,0.91 -3.73,2.34 -3.73,4.44 0,2.04 1.94,6.37 6.12,8.47 1.85,-0.66 3.35,-0.66 4.39,-0.66 1.49,0 4.63,0 4.63,1.55 0,1.25 -2.14,1.34 -4.08,1.34 l -0.05,-1.09 c 1.74,0 1.94,-0.05 2.83,-0.3 -0.39,-0.2 -0.89,-0.39 -3.19,-0.39 -1.14,0 -1.59,0 -2.48,0.39 l 0,0 c 1.14,0.3 2.23,0.3 2.84,0.3 l 0.05,1.09 c -0.91,0 -2.34,0 -4.19,-0.59 -1.29,1.29 -1.5,2.93 -1.5,3.89 0,2.78 1.8,6.62 5.53,8.47 0.91,-1.1 2.05,-1.1 3.19,-1.1 l 0.06,1.1 c -0.95,0 -1.54,0 -2.09,0.45 l 0,0 c 0.8,0.25 1.84,0.25 2.39,0.25 1.69,0 1.89,-0.06 2.78,-0.31 -0.39,-0.14 -0.89,-0.39 -3.08,-0.39 l -0.06,-1.1 c 1.25,0 4.44,0 4.44,1.55 0,1.3 -2.19,1.34 -4.14,1.34 -0.64,0 -1.85,0 -3.13,-0.25 -0.15,0.44 -0.25,0.8 -0.25,1.64 0,0.71 0.25,1.75 0.25,1.85 0,0.39 -0.25,0.64 -0.61,0.64 -0.89,0 -0.89,-2.28 -0.89,-2.44 0,-1 0.3,-1.73 0.35,-1.94 -5.33,-1.5 -8.72,-5.48 -8.72,-9.31 0,-1.84 0.91,-3.94 3.23,-5.28 z"
           id="path5453" /><path
           style="fill:#000000;stroke-width:0"
           inkscape:connector-curvature="0"
           d="m 558.75,410.4 0.26,0 0.24,-0.02 0.25,-0.03 0.24,-0.04 0.23,-0.05 0.22,-0.06 0.23,-0.07 0.21,-0.08 0.21,-0.1 0.2,-0.1 0.2,-0.12 0.19,-0.12 0.18,-0.14 0.17,-0.15 0.17,-0.16 0.16,-0.17 0.15,-0.18 0.14,-0.19 0.14,-0.2 0.12,-0.22 0.12,-0.22 0.11,-0.24 0.1,-0.24 0.09,-0.26 0.08,-0.27 0.07,-0.28 0.06,-0.29 0.05,-0.3 0.04,-0.31 0.02,-0.32 0.02,-0.33 0.01,-0.35 c 0,-4.33 -2.52,-5.61 -4.53,-5.61 -1.4,0 -4.47,0.38 -5.93,2.44 1.63,0.06 2.02,1.22 2.02,1.95 0,1.11 -0.84,1.91 -1.92,1.91 -0.97,0 -1.96,-0.59 -1.96,-2.02 0,-3.28 3.63,-5.4 7.85,-5.4 4.84,0 8.19,3.25 8.19,6.73 0,2.72 -2.22,5.44 -6.07,6.24 3.66,1.33 4.99,3.93 4.99,6.06 0,2.75 -3.17,4.81 -7.04,4.81 -3.87,0 -6.82,-1.89 -6.82,-4.67 0,-1.19 0.76,-1.84 1.81,-1.84 1.08,0 1.76,0.79 1.76,1.76 0,1.02 -0.68,1.75 -1.76,1.81 1.22,1.55 3.61,1.93 4.91,1.93 1.56,0 3.76,-0.77 3.76,-3.8 0,-1.47 -0.48,-3.06 -1.39,-4.14 -1.15,-1.33 -2.12,-1.41 -3.87,-1.5 -0.88,-0.08 -0.94,-0.08 -1.11,-0.11 -0.08,0 -0.36,-0.06 -0.36,-0.45 0,-0.49 0.31,-0.49 0.9,-0.49 z"
           id="path5455" /><path
           style="fill:#000000;stroke-width:0"
           inkscape:connector-curvature="0"
           d="m 586.07,418.65 0,0.37 -0.01,0.39 -0.01,0.39 -0.01,0.41 -0.04,0.84 -0.06,0.88 -0.08,0.92 -0.11,0.95 -0.13,0.97 -0.17,1.01 -0.19,1.02 -0.23,1.03 -0.27,1.05 -0.3,1.06 -0.35,1.07 -0.4,1.07 -0.21,0.53 -0.22,0.53 -0.24,0.53 -0.25,0.53 c -2.99,6.12 -7.27,9.36 -7.77,9.36 -0.29,0 -0.5,-0.19 -0.5,-0.49 0,-0.15 0,-0.25 0.94,-1.15 4.89,-4.92 7.74,-12.85 7.74,-23.27 0,-8.51 -1.85,-17.28 -8.04,-23.56 -0.64,-0.59 -0.64,-0.7 -0.64,-0.84 0,-0.3 0.21,-0.5 0.5,-0.5 0.5,0 4.97,3.39 7.93,9.71 2.53,5.47 3.12,11 3.12,15.19 z"
           id="path5457" /><path
           style="fill:#000000;stroke-width:0"
           inkscape:connector-curvature="0"
           d="m 604.59,417.81 0.01,0.03 0.01,0.02 0.01,0.03 0.01,0.02 0.01,0.03 0.01,0.02 0.01,0.03 0.01,0.02 0.01,0.02 0.01,0.02 0.01,0.02 0.01,0.03 0.01,0.03 0.01,0.04 0.02,0.04 0.01,0.03 0.01,0.03 0.01,0.03 0.01,0.03 0.01,0.02 0,0.03 0.01,0.02 0,0.02 0.01,0.02 0,0.02 0.01,0.02 0,0.02 0,0.01 0,0.02 0.01,0.01 0,0.02 0,0.01 0,0.03 0,0.03 0,0.02 c 0,0.16 0,0.25 -0.25,0.85 l -8.72,22.92 c -0.3,0.84 -0.59,1.14 -1.14,1.14 -0.55,0 -1,-0.44 -1,-0.99 0,-0.15 0,-0.25 0.25,-0.79 l 8.83,-23.13 -8.83,-23.01 c -0.25,-0.55 -0.25,-0.64 -0.25,-0.89 0,-0.55 0.45,-1 1,-1 0.66,0 0.84,0.5 1.05,1 z"
           id="path5459" /></g>    </g>
    <g
       id="g5565"
       transform="matrix(0.17433751,0,0,0.17433751,171.52756,166.50828)">
      <g
         word-spacing="normal"
         letter-spacing="normal"
         font-size-adjust="none"
         font-stretch="normal"
         font-weight="normal"
         font-variant="normal"
         font-style="normal"
         stroke-miterlimit="10.433"
         xml:space="preserve"
         transform="matrix(1.0629921,0,0,-1.0629921,-186.02362,789.27165)"
         id="g5567"
         style="font-style:normal;font-variant:normal;font-weight:normal;font-stretch:normal;letter-spacing:normal;word-spacing:normal;text-anchor:start;fill:none;fill-opacity:1;fill-rule:evenodd;stroke:#000000;stroke-linecap:butt;stroke-linejoin:miter;stroke-miterlimit:10.43299961;stroke-dasharray:none;stroke-dashoffset:0;stroke-opacity:1"><path
           id="path5569"
           d="m 463.44,441.78 0,0.16 0,0.17 -0.01,0.16 0,0.08 0,0.08 -0.01,0.08 -0.01,0.08 -0.01,0.07 -0.01,0.07 -0.02,0.07 -0.01,0.07 -0.02,0.07 -0.02,0.06 -0.03,0.06 -0.03,0.06 -0.03,0.06 -0.03,0.05 -0.04,0.05 -0.04,0.05 -0.05,0.04 -0.05,0.04 -0.03,0.01 -0.03,0.02 -0.03,0.02 -0.03,0.01 -0.03,0.01 -0.03,0.02 -0.03,0.01 -0.04,0.01 -0.04,0.01 -0.03,0.01 -0.04,0 -0.04,0.01 -0.04,0 -0.05,0.01 -0.04,0 -0.05,0 c -1,0 -1,-0.89 -1,-1.78 l 0,-46.24 c 0,-0.9 0,-1.79 1,-1.79 1,0 1,0.89 1,1.79 z"
           inkscape:connector-curvature="0"
           style="fill:#000000;stroke-width:0" /><path
           id="path5571"
           d="m 490.6,436.29 0,0.16 0,0.15 0,0.14 0.01,0.14 0.01,0.13 0.01,0.13 0.02,0.12 0.02,0.12 0.03,0.11 0.04,0.11 0.05,0.1 0.06,0.09 0.06,0.09 0.08,0.09 0.09,0.08 0.11,0.07 0.12,0.07 0.06,0.03 0.07,0.04 0.07,0.03 0.08,0.03 0.08,0.03 0.08,0.02 0.09,0.03 0.09,0.02 0.1,0.03 0.1,0.02 0.11,0.02 0.11,0.02 0.12,0.02 0.12,0.02 0.13,0.01 0.13,0.02 0.14,0.01 0.14,0.02 0.15,0.01 0.15,0.01 0.16,0.01 0.17,0.01 0.17,0.01 0.18,0.01 0.18,0 0.2,0.01 0.19,0 0.21,0 0.21,0 0.22,0 1.65,0 0,1.55 c -1.79,-0.16 -6.37,-0.16 -8.42,-0.16 -2.05,0 -6.67,0 -8.47,0.16 l 0,-1.55 1.64,0 c 4.74,0 4.74,-0.65 4.74,-2.39 l 0,-22.12 c -6.53,1.75 -6.78,9.42 -6.78,12.65 -0.05,6.04 -2.24,6.97 -4.44,6.97 l -1.85,0 c -0.73,0 -1.23,0 -1.23,-0.54 0,-0.25 0.14,-0.49 0.44,-0.55 1.65,-0.19 2.89,-0.89 2.95,-6.77 0,-1.15 0.14,-5.09 2.53,-8.42 1.96,-2.69 4.99,-4.14 8.38,-4.59 l 0,-2.78 c 0,-1.71 0,-2.39 -4.74,-2.39 l -1.64,0 0,-1.55 c 1.8,0.16 6.38,0.16 8.42,0.16 2.04,0 6.68,0 8.47,-0.16 l 0,1.55 -1.65,0 c -4.72,0 -4.72,0.64 -4.72,2.39 l 0,2.78 c 3.58,0.45 6.62,1.95 8.56,4.54 2.59,3.54 2.64,7.47 2.64,9.66 0,0.8 0.05,5.24 2.74,5.58 0.29,0.06 0.65,0.11 0.65,0.55 0,0.54 -0.4,0.54 -1.2,0.54 l -1.89,0 c -1.94,0 -4.39,-0.34 -4.44,-7.56 -0.05,-5.48 -1.69,-10.77 -7.06,-12.06 z"
           inkscape:connector-curvature="0"
           style="fill:#000000;stroke-width:0" /><path
           id="path5573"
           d="m 524.56,394.25 0,0.02 0,0.03 0,0.01 -0.01,0.02 0,0.01 0,0.02 -0.01,0.01 -0.01,0.02 -0.01,0.02 -0.01,0.02 -0.01,0.02 -0.01,0.03 -0.02,0.02 -0.02,0.03 -0.02,0.03 -0.02,0.03 -0.03,0.03 -0.03,0.04 -0.01,0.02 -0.02,0.02 -0.02,0.02 -0.02,0.02 -0.01,0.02 -0.02,0.03 -0.03,0.02 -0.02,0.02 -0.02,0.03 -0.02,0.02 -0.03,0.03 -0.02,0.03 -0.03,0.03 -0.03,0.03 -0.03,0.03 -0.03,0.03 -0.03,0.03 -0.03,0.03 -0.03,0.04 -0.04,0.03 -0.03,0.04 -0.04,0.03 -0.04,0.04 -0.03,0.04 c -6.22,6.28 -7.82,15.69 -7.82,23.31 0,8.67 1.89,17.35 8.02,23.56 0.64,0.61 0.64,0.71 0.64,0.86 0,0.35 -0.19,0.49 -0.49,0.49 -0.5,0 -4.98,-3.38 -7.92,-9.7 -2.55,-5.49 -3.14,-11.02 -3.14,-15.21 0,-3.89 0.55,-9.9 3.28,-15.54 2.99,-6.13 7.28,-9.36 7.78,-9.36 0.3,0 0.49,0.14 0.49,0.5 z"
           inkscape:connector-curvature="0"
           style="fill:#000000;stroke-width:0" /><path
           id="path5575"
           d="m 535.06,421.45 -0.49,-0.34 -0.48,-0.35 -0.44,-0.35 -0.43,-0.35 -0.4,-0.36 -0.38,-0.36 -0.36,-0.36 -0.33,-0.37 -0.32,-0.36 -0.29,-0.37 -0.28,-0.36 -0.25,-0.36 -0.24,-0.36 -0.22,-0.36 -0.21,-0.35 -0.18,-0.35 -0.17,-0.34 -0.16,-0.34 -0.14,-0.33 -0.13,-0.32 -0.11,-0.32 -0.1,-0.3 -0.09,-0.3 -0.07,-0.28 -0.07,-0.28 -0.05,-0.26 -0.05,-0.25 -0.03,-0.24 -0.03,-0.22 -0.02,-0.21 -0.01,-0.19 0,-0.17 c 0,-2.39 1.35,-3.8 1.45,-3.94 1.6,-1.66 2.05,-1.84 5.79,-3.25 l 6.01,-2.33 c 0.75,-0.36 1.75,-0.7 1.75,-2.16 0,-1.14 -0.89,-2.64 -2.44,-2.64 -2.18,0 -3.84,1.21 -4.39,1.61 -0.29,0.19 -0.34,0.24 -0.54,0.24 -0.39,0 -0.5,-0.35 -0.5,-0.55 0,-0.59 2.64,-2.39 5.43,-2.39 3.1,0 5.18,2.89 5.18,5.34 0,2.39 -1.85,3.29 -2.39,3.54 -0.69,0.25 -2.4,0.89 -3.04,1.14 -1,0.4 -2,0.79 -3.04,1.15 l -2.99,1.19 c -2.23,0.91 -3.73,2.34 -3.73,4.44 0,2.04 1.94,6.37 6.12,8.47 1.85,-0.66 3.35,-0.66 4.39,-0.66 1.49,0 4.63,0 4.63,1.55 0,1.25 -2.14,1.34 -4.08,1.34 l -0.05,-1.09 c 1.74,0 1.94,-0.05 2.83,-0.3 -0.39,-0.2 -0.89,-0.39 -3.19,-0.39 -1.14,0 -1.59,0 -2.48,0.39 l 0,0 c 1.14,0.3 2.23,0.3 2.84,0.3 l 0.05,1.09 c -0.91,0 -2.34,0 -4.19,-0.59 -1.29,1.29 -1.5,2.93 -1.5,3.89 0,2.78 1.8,6.62 5.53,8.47 0.91,-1.1 2.05,-1.1 3.19,-1.1 l 0.06,1.1 c -0.95,0 -1.54,0 -2.09,0.45 l 0,0 c 0.8,0.25 1.84,0.25 2.39,0.25 1.69,0 1.89,-0.06 2.78,-0.31 -0.39,-0.14 -0.89,-0.39 -3.08,-0.39 l -0.06,-1.1 c 1.25,0 4.44,0 4.44,1.55 0,1.3 -2.19,1.34 -4.14,1.34 -0.64,0 -1.85,0 -3.13,-0.25 -0.15,0.44 -0.25,0.8 -0.25,1.64 0,0.71 0.25,1.75 0.25,1.85 0,0.39 -0.25,0.64 -0.61,0.64 -0.89,0 -0.89,-2.28 -0.89,-2.44 0,-1 0.3,-1.73 0.35,-1.94 -5.33,-1.5 -8.72,-5.48 -8.72,-9.31 0,-1.84 0.91,-3.94 3.23,-5.28 z"
           inkscape:connector-curvature="0"
           style="fill:#000000;stroke-width:0" /><path
           id="path5577"
           d="m 567.68,404.48 0,1.25 -3.88,0 0,15.55 c 0,0.72 0,0.97 -0.77,0.97 -0.42,0 -0.56,0 -0.9,-0.49 l -11.53,-16.03 0,-1.25 10.25,0 0.23,1.25 -9.2,0 9.2,12.75 0,-12.75 -0.23,-1.25 0,-2.86 c 0,-1.19 0,-1.61 -2.83,-1.61 l -0.94,0 0,-1.25 c 1.74,0.06 3.97,0.14 5.22,0.14 1.3,0 3.52,-0.08 5.27,-0.14 l 0,1.25 -0.94,0 c -2.83,0 -2.83,0.42 -2.83,1.61 l 0,2.86 z"
           inkscape:connector-curvature="0"
           style="fill:#000000;stroke-width:0" /><path
           id="path5579"
           d="m 586.07,418.65 0,0.37 -0.01,0.39 -0.01,0.39 -0.01,0.41 -0.04,0.84 -0.06,0.88 -0.08,0.92 -0.11,0.95 -0.13,0.97 -0.17,1.01 -0.19,1.02 -0.23,1.03 -0.27,1.05 -0.3,1.06 -0.35,1.07 -0.4,1.07 -0.21,0.53 -0.22,0.53 -0.24,0.53 -0.25,0.53 c -2.99,6.12 -7.27,9.36 -7.77,9.36 -0.29,0 -0.5,-0.19 -0.5,-0.49 0,-0.15 0,-0.25 0.94,-1.15 4.89,-4.92 7.74,-12.85 7.74,-23.27 0,-8.51 -1.85,-17.28 -8.04,-23.56 -0.64,-0.59 -0.64,-0.7 -0.64,-0.84 0,-0.3 0.21,-0.5 0.5,-0.5 0.5,0 4.97,3.39 7.93,9.71 2.53,5.47 3.12,11 3.12,15.19 z"
           inkscape:connector-curvature="0"
           style="fill:#000000;stroke-width:0" /><path
           id="path5581"
           d="m 604.59,417.81 0.01,0.03 0.01,0.02 0.01,0.03 0.01,0.02 0.01,0.03 0.01,0.02 0.01,0.03 0.01,0.02 0.01,0.02 0.01,0.02 0.01,0.02 0.01,0.03 0.01,0.03 0.01,0.04 0.02,0.04 0.01,0.03 0.01,0.03 0.01,0.03 0.01,0.03 0.01,0.02 0,0.03 0.01,0.02 0,0.02 0.01,0.02 0,0.02 0.01,0.02 0,0.02 0,0.01 0,0.02 0.01,0.01 0,0.02 0,0.01 0,0.03 0,0.03 0,0.02 c 0,0.16 0,0.25 -0.25,0.85 l -8.72,22.92 c -0.3,0.84 -0.59,1.14 -1.14,1.14 -0.55,0 -1,-0.44 -1,-0.99 0,-0.15 0,-0.25 0.25,-0.79 l 8.83,-23.13 -8.83,-23.01 c -0.25,-0.55 -0.25,-0.64 -0.25,-0.89 0,-0.55 0.45,-1 1,-1 0.66,0 0.84,0.5 1.05,1 z"
           inkscape:connector-curvature="0"
           style="fill:#000000;stroke-width:0" /></g>    </g>
  </g>
</svg>
